<?xml version="1.0" encoding="utf-8"?>
<svg width="256px" height="256px" viewBox="0 0 256 256" version="1.1" xmlns:xlink="http://www.w3.org/1999/xlink" xmlns="http://www.w3.org/2000/svg">
  <defs>
    <rect width="256" height="256" id="artboard_1" />
    <clipPath id="clip_1">
      <use xlink:href="#artboard_1" clip-rule="evenodd" />
    </clipPath>
  </defs>
  <g id="Artboard" clip-path="url(#clip_1)">
    <use xlink:href="#artboard_1" stroke="none" fill="#FFFFFF" fill-opacity="0" />
    <path d="M37.999 30L153.001 30Q153.197 30 153.393 30.0096Q153.59 30.0193 153.785 30.0385Q153.98 30.0578 154.175 30.0866Q154.369 30.1154 154.562 30.1537Q154.754 30.192 154.945 30.2397Q155.135 30.2874 155.323 30.3444Q155.511 30.4014 155.696 30.4676Q155.881 30.5337 156.062 30.6089Q156.243 30.684 156.421 30.768Q156.599 30.8519 156.772 30.9445Q156.945 31.0371 157.113 31.138Q157.282 31.239 157.445 31.3481Q157.608 31.4572 157.766 31.5741Q157.924 31.6911 158.076 31.8157Q158.227 31.9403 158.373 32.0721Q158.518 32.204 158.657 32.3428Q158.796 32.4817 158.928 32.6272Q159.06 32.7727 159.184 32.9245Q159.309 33.0763 159.426 33.234Q159.543 33.3917 159.652 33.555Q159.761 33.7183 159.862 33.8867Q159.963 34.0551 160.055 34.2283Q160.148 34.4015 160.232 34.579Q160.316 34.7565 160.391 34.9379Q160.466 35.1193 160.532 35.3042Q160.599 35.4891 160.656 35.677Q160.713 35.8649 160.76 36.0554Q160.808 36.2459 160.846 36.4385Q160.885 36.6311 160.913 36.8253Q160.942 37.0195 160.961 37.215Q160.981 37.4104 160.99 37.6065Q161 37.8026 161 37.999L161 153.001Q161 153.197 160.99 153.393Q160.981 153.59 160.961 153.785Q160.942 153.98 160.913 154.175Q160.885 154.369 160.846 154.562Q160.808 154.754 160.76 154.945Q160.713 155.135 160.656 155.323Q160.599 155.511 160.532 155.696Q160.466 155.881 160.391 156.062Q160.316 156.243 160.232 156.421Q160.148 156.599 160.055 156.772Q159.963 156.945 159.862 157.113Q159.761 157.282 159.652 157.445Q159.543 157.608 159.426 157.766Q159.309 157.924 159.184 158.076Q159.06 158.227 158.928 158.373Q158.796 158.518 158.657 158.657Q158.518 158.796 158.373 158.928Q158.227 159.06 158.076 159.184Q157.924 159.309 157.766 159.426Q157.608 159.543 157.445 159.652Q157.282 159.761 157.113 159.862Q156.945 159.963 156.772 160.055Q156.599 160.148 156.421 160.232Q156.243 160.316 156.062 160.391Q155.881 160.466 155.696 160.532Q155.511 160.599 155.323 160.656Q155.135 160.713 154.945 160.76Q154.754 160.808 154.562 160.846Q154.369 160.885 154.175 160.913Q153.98 160.942 153.785 160.961Q153.59 160.981 153.393 160.99Q153.197 161 153.001 161L37.999 161Q37.8026 161 37.6065 160.99Q37.4104 160.981 37.215 160.961Q37.0195 160.942 36.8253 160.913Q36.6311 160.885 36.4385 160.846Q36.2459 160.808 36.0554 160.76Q35.8649 160.713 35.677 160.656Q35.4891 160.599 35.3042 160.532Q35.1193 160.466 34.9379 160.391Q34.7565 160.316 34.579 160.232Q34.4015 160.148 34.2283 160.055Q34.0551 159.963 33.8867 159.862Q33.7183 159.761 33.555 159.652Q33.3917 159.543 33.234 159.426Q33.0763 159.309 32.9245 159.184Q32.7727 159.06 32.6272 158.928Q32.4817 158.796 32.3428 158.657Q32.204 158.518 32.0721 158.373Q31.9403 158.227 31.8157 158.076Q31.6911 157.924 31.5741 157.766Q31.4572 157.608 31.3481 157.445Q31.239 157.282 31.138 157.113Q31.0371 156.945 30.9445 156.772Q30.8519 156.599 30.768 156.421Q30.684 156.243 30.6089 156.062Q30.5337 155.881 30.4676 155.696Q30.4014 155.511 30.3444 155.323Q30.2874 155.135 30.2397 154.945Q30.192 154.754 30.1537 154.562Q30.1154 154.369 30.0866 154.175Q30.0578 153.98 30.0385 153.785Q30.0193 153.59 30.0096 153.393Q30 153.197 30 153.001L30 37.999Q30 37.8026 30.0096 37.6065Q30.0193 37.4104 30.0385 37.215Q30.0578 37.0195 30.0866 36.8253Q30.1154 36.6311 30.1537 36.4385Q30.192 36.2459 30.2397 36.0554Q30.2874 35.8649 30.3444 35.677Q30.4014 35.4891 30.4676 35.3042Q30.5337 35.1193 30.6089 34.9379Q30.684 34.7565 30.768 34.579Q30.8519 34.4015 30.9445 34.2283Q31.0371 34.0551 31.138 33.8867Q31.239 33.7183 31.3481 33.555Q31.4572 33.3917 31.5741 33.234Q31.6911 33.0763 31.8157 32.9245Q31.9403 32.7727 32.0721 32.6272Q32.204 32.4817 32.3428 32.3428Q32.4817 32.204 32.6272 32.0721Q32.7727 31.9403 32.9245 31.8157Q33.0763 31.6911 33.234 31.5741Q33.3917 31.4572 33.555 31.3481Q33.7183 31.239 33.8867 31.138Q34.0551 31.0371 34.2283 30.9445Q34.4015 30.8519 34.579 30.768Q34.7565 30.684 34.9379 30.6089Q35.1193 30.5337 35.3042 30.4676Q35.4891 30.4014 35.677 30.3444Q35.8649 30.2874 36.0554 30.2397Q36.2459 30.192 36.4385 30.1537Q36.6311 30.1154 36.8253 30.0866Q37.0195 30.0578 37.215 30.0385Q37.4104 30.0193 37.6065 30.0096Q37.8026 30 37.999 30Z" id="Rectangle-2" fill="#EEA243" fill-rule="evenodd" stroke="none" artboard="21b5b5f6-3aca-4651-b366-dfb18618b603" />
    <path d="M103.999 95L219.001 95Q219.197 95 219.393 95.0096Q219.59 95.0193 219.785 95.0385Q219.98 95.0578 220.175 95.0866Q220.369 95.1154 220.562 95.1537Q220.754 95.192 220.945 95.2397Q221.135 95.2874 221.323 95.3444Q221.511 95.4014 221.696 95.4676Q221.881 95.5337 222.062 95.6089Q222.243 95.684 222.421 95.768Q222.599 95.8519 222.772 95.9445Q222.945 96.0371 223.113 96.138Q223.282 96.239 223.445 96.3481Q223.608 96.4572 223.766 96.5741Q223.924 96.6911 224.076 96.8157Q224.227 96.9403 224.373 97.0721Q224.518 97.204 224.657 97.3428Q224.796 97.4817 224.928 97.6272Q225.06 97.7727 225.184 97.9245Q225.309 98.0763 225.426 98.234Q225.543 98.3917 225.652 98.555Q225.761 98.7183 225.862 98.8867Q225.963 99.0551 226.055 99.2283Q226.148 99.4015 226.232 99.579Q226.316 99.7565 226.391 99.9379Q226.466 100.119 226.532 100.304Q226.599 100.489 226.656 100.677Q226.713 100.865 226.76 101.055Q226.808 101.246 226.846 101.438Q226.885 101.631 226.913 101.825Q226.942 102.02 226.961 102.215Q226.981 102.41 226.99 102.606Q227 102.803 227 102.999L227 218.001Q227 218.197 226.99 218.394Q226.981 218.59 226.961 218.785Q226.942 218.98 226.913 219.175Q226.885 219.369 226.846 219.562Q226.808 219.754 226.76 219.945Q226.713 220.135 226.656 220.323Q226.599 220.511 226.532 220.696Q226.466 220.881 226.391 221.062Q226.316 221.243 226.232 221.421Q226.148 221.599 226.055 221.772Q225.963 221.945 225.862 222.113Q225.761 222.282 225.652 222.445Q225.543 222.608 225.426 222.766Q225.309 222.924 225.184 223.076Q225.06 223.227 224.928 223.373Q224.796 223.518 224.657 223.657Q224.518 223.796 224.373 223.928Q224.227 224.06 224.075 224.184Q223.924 224.309 223.766 224.426Q223.608 224.543 223.445 224.652Q223.282 224.761 223.113 224.862Q222.945 224.963 222.772 225.055Q222.599 225.148 222.421 225.232Q222.243 225.316 222.062 225.391Q221.881 225.466 221.696 225.532Q221.511 225.599 221.323 225.656Q221.135 225.713 220.945 225.76Q220.754 225.808 220.562 225.846Q220.369 225.885 220.175 225.913Q219.98 225.942 219.785 225.962Q219.59 225.981 219.393 225.99Q219.197 226 219.001 226L103.999 226Q103.803 226 103.606 225.99Q103.41 225.981 103.215 225.962Q103.02 225.942 102.825 225.913Q102.631 225.885 102.438 225.846Q102.246 225.808 102.055 225.76Q101.865 225.713 101.677 225.656Q101.489 225.599 101.304 225.532Q101.119 225.466 100.938 225.391Q100.756 225.316 100.579 225.232Q100.401 225.148 100.228 225.055Q100.055 224.963 99.8867 224.862Q99.7182 224.761 99.555 224.652Q99.3917 224.543 99.234 224.426Q99.0763 224.309 98.9245 224.184Q98.7727 224.06 98.6272 223.928Q98.4817 223.796 98.3428 223.657Q98.204 223.518 98.0721 223.373Q97.9403 223.227 97.8157 223.075Q97.6911 222.924 97.5741 222.766Q97.4571 222.608 97.3481 222.445Q97.239 222.282 97.138 222.113Q97.0371 221.945 96.9445 221.772Q96.8519 221.599 96.768 221.421Q96.684 221.243 96.6089 221.062Q96.5337 220.881 96.4676 220.696Q96.4014 220.511 96.3444 220.323Q96.2874 220.135 96.2397 219.945Q96.192 219.754 96.1537 219.562Q96.1154 219.369 96.0866 219.175Q96.0578 218.98 96.0385 218.785Q96.0193 218.59 96.0096 218.393Q96 218.197 96 218.001L96 102.999Q96 102.803 96.0096 102.607Q96.0193 102.41 96.0385 102.215Q96.0578 102.02 96.0866 101.825Q96.1154 101.631 96.1537 101.438Q96.192 101.246 96.2397 101.055Q96.2874 100.865 96.3444 100.677Q96.4014 100.489 96.4676 100.304Q96.5337 100.119 96.6089 99.9379Q96.684 99.7565 96.768 99.579Q96.8519 99.4015 96.9445 99.2283Q97.0371 99.0551 97.138 98.8867Q97.239 98.7183 97.3481 98.555Q97.4571 98.3917 97.5741 98.234Q97.6911 98.0763 97.8157 97.9245Q97.9403 97.7727 98.0721 97.6272Q98.204 97.4817 98.3428 97.3428Q98.4817 97.204 98.6272 97.0721Q98.7727 96.9403 98.9245 96.8157Q99.0763 96.6911 99.234 96.5741Q99.3917 96.4572 99.555 96.3481Q99.7182 96.239 99.8867 96.138Q100.055 96.0371 100.228 95.9445Q100.401 95.8519 100.579 95.768Q100.756 95.684 100.938 95.6089Q101.119 95.5337 101.304 95.4676Q101.489 95.4014 101.677 95.3444Q101.865 95.2874 102.055 95.2397Q102.246 95.192 102.438 95.1537Q102.631 95.1154 102.825 95.0866Q103.02 95.0578 103.215 95.0385Q103.41 95.0193 103.606 95.0096Q103.803 95 103.999 95Z" id="Rectangle-3" fill="#EEA243" fill-rule="evenodd" stroke="none" artboard="a307876c-189f-485f-a44f-f4dedf206ff8" />
    <g id="F" fill="#FFFFFF" transform="translate(63.5 46.5)" artboard="8c69b27e-47c5-4a0c-93b7-174fe167566b">
      <path d="M45.5625 52.9844L16.9219 52.9844L16.9219 83.125L7.92188 83.125L7.92188 14.875L50.2031 14.875L50.2031 22.2344L16.9219 22.2344L16.9219 45.625L45.5625 45.625L45.5625 52.9844Z" />
    </g>
    <g id="W" fill="#FFFFFF" transform="translate(119 112)" artboard="0fd3445f-5d3f-4585-ad56-02f5b7a3d5f5">
      <path d="M22.6406 61.6094L23.9531 70.6094L25.875 62.5L39.375 14.875L46.9688 14.875L60.1406 62.5L62.0156 70.75L63.4688 61.5625L74.0625 14.875L83.1094 14.875L66.5625 83.125L58.3594 83.125L44.2969 33.3906L43.2188 28.1875L42.1406 33.3906L27.5625 83.125L19.3594 83.125L2.85938 14.875L11.8594 14.875L22.6406 61.6094Z" />
    </g>
    <path d="M173.999 5.5L174.001 5.5Q174.148 5.5 174.295 5.50723Q174.442 5.51445 174.589 5.52889Q174.736 5.54332 174.881 5.56493Q175.027 5.58654 175.171 5.61527Q175.316 5.644 175.459 5.67978Q175.601 5.71557 175.742 5.75832Q175.883 5.80106 176.022 5.85068Q176.161 5.90029 176.297 5.95665Q176.433 6.013 176.566 6.07597Q176.699 6.13893 176.829 6.20835Q176.959 6.27778 177.085 6.35349Q177.211 6.4292 177.334 6.51101Q177.456 6.59283 177.575 6.68056Q177.693 6.76828 177.807 6.86171Q177.921 6.95514 178.03 7.05403Q178.139 7.15293 178.243 7.25707Q178.347 7.3612 178.446 7.47032Q178.545 7.57943 178.638 7.69327Q178.732 7.80711 178.819 7.9254Q178.907 8.04369 178.989 8.16613Q179.071 8.28858 179.146 8.4149Q179.222 8.54121 179.292 8.67109Q179.361 8.80097 179.424 8.9341Q179.487 9.06722 179.543 9.20328Q179.6 9.33934 179.649 9.478Q179.699 9.61666 179.742 9.75758Q179.784 9.89851 179.82 10.0414Q179.856 10.1842 179.885 10.3287Q179.913 10.4731 179.935 10.6188Q179.957 10.7644 179.971 10.911Q179.986 11.0576 179.993 11.2046Q180 11.3517 180 11.499L180 82.501Q180 82.6483 179.993 82.7954Q179.986 82.9424 179.971 83.089Q179.957 83.2355 179.935 83.3812Q179.913 83.5269 179.885 83.6713Q179.856 83.8158 179.82 83.9586Q179.784 84.1015 179.742 84.2424Q179.699 84.3833 179.649 84.522Q179.6 84.6607 179.543 84.7967Q179.487 84.9328 179.424 85.0659Q179.361 85.199 179.292 85.3289Q179.222 85.4588 179.147 85.5851Q179.071 85.7114 178.989 85.8339Q178.907 85.9563 178.819 86.0746Q178.732 86.1929 178.638 86.3067Q178.545 86.4206 178.446 86.5297Q178.347 86.6388 178.243 86.7429Q178.139 86.8471 178.03 86.946Q177.921 87.0449 177.807 87.1383Q177.693 87.2317 177.575 87.3194Q177.456 87.4072 177.334 87.489Q177.211 87.5708 177.085 87.6465Q176.959 87.7222 176.829 87.7916Q176.699 87.861 176.566 87.924Q176.433 87.987 176.297 88.0433Q176.161 88.0997 176.022 88.1493Q175.883 88.1989 175.742 88.2417Q175.601 88.2844 175.459 88.3202Q175.316 88.356 175.171 88.3847Q175.027 88.4135 174.881 88.4351Q174.736 88.4567 174.589 88.4711Q174.442 88.4855 174.295 88.4928Q174.148 88.5 174.001 88.5L173.999 88.5Q173.852 88.5 173.705 88.4928Q173.558 88.4855 173.411 88.4711Q173.264 88.4567 173.119 88.4351Q172.973 88.4135 172.829 88.3847Q172.684 88.356 172.541 88.3202Q172.398 88.2844 172.258 88.2417Q172.117 88.1989 171.978 88.1493Q171.839 88.0997 171.703 88.0433Q171.567 87.987 171.434 87.924Q171.301 87.861 171.171 87.7916Q171.041 87.7222 170.915 87.6465Q170.789 87.5708 170.666 87.489Q170.544 87.4072 170.425 87.3194Q170.307 87.2317 170.193 87.1383Q170.079 87.0449 169.97 86.946Q169.861 86.8471 169.757 86.7429Q169.653 86.6388 169.554 86.5297Q169.455 86.4206 169.362 86.3067Q169.268 86.1929 169.181 86.0746Q169.093 85.9563 169.011 85.8339Q168.929 85.7114 168.853 85.5851Q168.778 85.4588 168.708 85.3289Q168.639 85.199 168.576 85.0659Q168.513 84.9328 168.457 84.7967Q168.4 84.6607 168.351 84.522Q168.301 84.3833 168.258 84.2424Q168.216 84.1015 168.18 83.9586Q168.144 83.8158 168.115 83.6713Q168.087 83.5269 168.065 83.3812Q168.043 83.2355 168.029 83.089Q168.014 82.9424 168.007 82.7954Q168 82.6483 168 82.501L168 11.499Q168 11.3517 168.007 11.2046Q168.014 11.0576 168.029 10.911Q168.043 10.7644 168.065 10.6188Q168.087 10.4731 168.115 10.3287Q168.144 10.1842 168.18 10.0414Q168.216 9.89851 168.258 9.75758Q168.301 9.61666 168.351 9.478Q168.4 9.33934 168.457 9.20328Q168.513 9.06722 168.576 8.9341Q168.639 8.80097 168.708 8.67109Q168.778 8.54121 168.853 8.4149Q168.929 8.28858 169.011 8.16613Q169.093 8.04368 169.181 7.9254Q169.268 7.80711 169.362 7.69327Q169.455 7.57943 169.554 7.47032Q169.653 7.3612 169.757 7.25707Q169.861 7.15293 169.97 7.05403Q170.079 6.95514 170.193 6.86171Q170.307 6.76828 170.425 6.68056Q170.544 6.59283 170.666 6.51101Q170.789 6.4292 170.915 6.35349Q171.041 6.27778 171.171 6.20835Q171.301 6.13893 171.434 6.07597Q171.567 6.013 171.703 5.95665Q171.839 5.90029 171.978 5.85068Q172.117 5.80106 172.258 5.75832Q172.398 5.71557 172.541 5.67978Q172.684 5.644 172.829 5.61527Q172.973 5.58654 173.119 5.56493Q173.264 5.54332 173.411 5.52889Q173.558 5.51445 173.705 5.50723Q173.852 5.5 173.999 5.5Z" id="Rectangle-5" fill="#EEA243" fill-rule="evenodd" stroke="none" artboard="e9d122c0-d9b7-406a-bdf1-5eec824adc92" />
    <path d="M195.999 5.5L196.001 5.5Q196.148 5.5 196.295 5.50723Q196.442 5.51445 196.589 5.52889Q196.736 5.54332 196.881 5.56493Q197.027 5.58654 197.171 5.61527Q197.316 5.644 197.459 5.67978Q197.601 5.71557 197.742 5.75832Q197.883 5.80106 198.022 5.85068Q198.161 5.90029 198.297 5.95665Q198.433 6.013 198.566 6.07597Q198.699 6.13893 198.829 6.20835Q198.959 6.27778 199.085 6.35349Q199.211 6.4292 199.334 6.51101Q199.456 6.59283 199.575 6.68056Q199.693 6.76828 199.807 6.86171Q199.921 6.95514 200.03 7.05403Q200.139 7.15293 200.243 7.25707Q200.347 7.3612 200.446 7.47032Q200.545 7.57943 200.638 7.69327Q200.732 7.80711 200.819 7.9254Q200.907 8.04369 200.989 8.16613Q201.071 8.28858 201.146 8.4149Q201.222 8.54121 201.292 8.67109Q201.361 8.80097 201.424 8.9341Q201.487 9.06722 201.543 9.20328Q201.6 9.33934 201.649 9.478Q201.699 9.61666 201.742 9.75758Q201.784 9.89851 201.82 10.0414Q201.856 10.1842 201.885 10.3287Q201.913 10.4731 201.935 10.6188Q201.957 10.7644 201.971 10.911Q201.986 11.0576 201.993 11.2046Q202 11.3517 202 11.499L202 82.501Q202 82.6483 201.993 82.7954Q201.986 82.9424 201.971 83.089Q201.957 83.2355 201.935 83.3812Q201.913 83.5269 201.885 83.6713Q201.856 83.8158 201.82 83.9586Q201.784 84.1015 201.742 84.2424Q201.699 84.3833 201.649 84.522Q201.6 84.6607 201.543 84.7967Q201.487 84.9328 201.424 85.0659Q201.361 85.199 201.292 85.3289Q201.222 85.4588 201.146 85.5851Q201.071 85.7114 200.989 85.8339Q200.907 85.9563 200.819 86.0746Q200.732 86.1929 200.638 86.3067Q200.545 86.4206 200.446 86.5297Q200.347 86.6388 200.243 86.7429Q200.139 86.8471 200.03 86.946Q199.921 87.0449 199.807 87.1383Q199.693 87.2317 199.575 87.3194Q199.456 87.4072 199.334 87.489Q199.211 87.5708 199.085 87.6465Q198.959 87.7222 198.829 87.7916Q198.699 87.861 198.566 87.924Q198.433 87.987 198.297 88.0433Q198.161 88.0997 198.022 88.1493Q197.883 88.1989 197.742 88.2417Q197.601 88.2844 197.459 88.3202Q197.316 88.356 197.171 88.3847Q197.027 88.4135 196.881 88.4351Q196.736 88.4567 196.589 88.4711Q196.442 88.4855 196.295 88.4928Q196.148 88.5 196.001 88.5L195.999 88.5Q195.852 88.5 195.705 88.4928Q195.558 88.4855 195.411 88.4711Q195.264 88.4567 195.119 88.4351Q194.973 88.4135 194.829 88.3847Q194.684 88.356 194.541 88.3202Q194.398 88.2844 194.258 88.2417Q194.117 88.1989 193.978 88.1493Q193.839 88.0997 193.703 88.0433Q193.567 87.987 193.434 87.924Q193.301 87.861 193.171 87.7916Q193.041 87.7222 192.915 87.6465Q192.789 87.5708 192.666 87.489Q192.544 87.4072 192.425 87.3194Q192.307 87.2317 192.193 87.1383Q192.079 87.0449 191.97 86.946Q191.861 86.8471 191.757 86.7429Q191.653 86.6388 191.554 86.5297Q191.455 86.4206 191.362 86.3067Q191.268 86.1929 191.181 86.0746Q191.093 85.9563 191.011 85.8339Q190.929 85.7114 190.854 85.5851Q190.778 85.4588 190.708 85.3289Q190.639 85.199 190.576 85.0659Q190.513 84.9328 190.457 84.7967Q190.4 84.6607 190.351 84.522Q190.301 84.3833 190.258 84.2424Q190.216 84.1015 190.18 83.9586Q190.144 83.8158 190.115 83.6713Q190.087 83.5269 190.065 83.3812Q190.043 83.2355 190.029 83.089Q190.014 82.9424 190.007 82.7954Q190 82.6483 190 82.501L190 11.499Q190 11.3517 190.007 11.2046Q190.014 11.0576 190.029 10.911Q190.043 10.7644 190.065 10.6188Q190.087 10.4731 190.115 10.3287Q190.144 10.1842 190.18 10.0414Q190.216 9.89851 190.258 9.75758Q190.301 9.61666 190.351 9.478Q190.4 9.33934 190.457 9.20328Q190.513 9.06722 190.576 8.9341Q190.639 8.80097 190.708 8.67109Q190.778 8.54121 190.853 8.4149Q190.929 8.28858 191.011 8.16613Q191.093 8.04368 191.181 7.9254Q191.268 7.80711 191.362 7.69327Q191.455 7.57943 191.554 7.47032Q191.653 7.3612 191.757 7.25707Q191.861 7.15293 191.97 7.05403Q192.079 6.95514 192.193 6.86171Q192.307 6.76828 192.425 6.68056Q192.544 6.59283 192.666 6.51101Q192.789 6.4292 192.915 6.35349Q193.041 6.27778 193.171 6.20835Q193.301 6.13893 193.434 6.07597Q193.567 6.013 193.703 5.95665Q193.839 5.90029 193.978 5.85068Q194.117 5.80106 194.258 5.75832Q194.398 5.71557 194.541 5.67978Q194.684 5.644 194.829 5.61527Q194.973 5.58654 195.119 5.56493Q195.264 5.54332 195.411 5.52889Q195.558 5.51445 195.705 5.50723Q195.852 5.5 195.999 5.5Z" id="Rectangle-6" fill="#EEA243" fill-rule="evenodd" stroke="none" artboard="521d5838-8989-431c-b4b3-f35c8b3018e0" />
    <path d="M216.999 5.5L217.001 5.5Q217.148 5.5 217.295 5.50723Q217.442 5.51445 217.589 5.52889Q217.736 5.54332 217.881 5.56493Q218.027 5.58654 218.171 5.61527Q218.316 5.644 218.459 5.67978Q218.601 5.71557 218.742 5.75832Q218.883 5.80106 219.022 5.85068Q219.161 5.90029 219.297 5.95665Q219.433 6.013 219.566 6.07597Q219.699 6.13893 219.829 6.20835Q219.959 6.27778 220.085 6.35349Q220.211 6.4292 220.334 6.51101Q220.456 6.59283 220.575 6.68056Q220.693 6.76828 220.807 6.86171Q220.921 6.95514 221.03 7.05403Q221.139 7.15293 221.243 7.25707Q221.347 7.3612 221.446 7.47032Q221.545 7.57943 221.638 7.69327Q221.732 7.80711 221.819 7.9254Q221.907 8.04369 221.989 8.16613Q222.071 8.28858 222.146 8.4149Q222.222 8.54121 222.292 8.67109Q222.361 8.80097 222.424 8.9341Q222.487 9.06722 222.543 9.20328Q222.6 9.33934 222.649 9.478Q222.699 9.61666 222.742 9.75758Q222.784 9.89851 222.82 10.0414Q222.856 10.1842 222.885 10.3287Q222.913 10.4731 222.935 10.6188Q222.957 10.7644 222.971 10.911Q222.986 11.0576 222.993 11.2046Q223 11.3517 223 11.499L223 82.501Q223 82.6483 222.993 82.7954Q222.986 82.9424 222.971 83.089Q222.957 83.2355 222.935 83.3812Q222.913 83.5269 222.885 83.6713Q222.856 83.8158 222.82 83.9586Q222.784 84.1015 222.742 84.2424Q222.699 84.3833 222.649 84.522Q222.6 84.6607 222.543 84.7967Q222.487 84.9328 222.424 85.0659Q222.361 85.199 222.292 85.3289Q222.222 85.4588 222.146 85.5851Q222.071 85.7114 221.989 85.8339Q221.907 85.9563 221.819 86.0746Q221.732 86.1929 221.638 86.3067Q221.545 86.4206 221.446 86.5297Q221.347 86.6388 221.243 86.7429Q221.139 86.8471 221.03 86.946Q220.921 87.0449 220.807 87.1383Q220.693 87.2317 220.575 87.3194Q220.456 87.4072 220.334 87.489Q220.211 87.5708 220.085 87.6465Q219.959 87.7222 219.829 87.7916Q219.699 87.861 219.566 87.924Q219.433 87.987 219.297 88.0433Q219.161 88.0997 219.022 88.1493Q218.883 88.1989 218.742 88.2417Q218.601 88.2844 218.459 88.3202Q218.316 88.356 218.171 88.3847Q218.027 88.4135 217.881 88.4351Q217.736 88.4567 217.589 88.4711Q217.442 88.4855 217.295 88.4928Q217.148 88.5 217.001 88.5L216.999 88.5Q216.852 88.5 216.705 88.4928Q216.558 88.4855 216.411 88.4711Q216.264 88.4567 216.119 88.4351Q215.973 88.4135 215.829 88.3847Q215.684 88.356 215.541 88.3202Q215.398 88.2844 215.258 88.2417Q215.117 88.1989 214.978 88.1493Q214.839 88.0997 214.703 88.0433Q214.567 87.987 214.434 87.924Q214.301 87.861 214.171 87.7916Q214.041 87.7222 213.915 87.6465Q213.789 87.5708 213.666 87.489Q213.544 87.4072 213.425 87.3194Q213.307 87.2317 213.193 87.1383Q213.079 87.0449 212.97 86.946Q212.861 86.8471 212.757 86.7429Q212.653 86.6388 212.554 86.5297Q212.455 86.4206 212.362 86.3067Q212.268 86.1929 212.181 86.0746Q212.093 85.9563 212.011 85.8339Q211.929 85.7114 211.853 85.5851Q211.778 85.4588 211.708 85.3289Q211.639 85.199 211.576 85.0659Q211.513 84.9328 211.457 84.7967Q211.4 84.6607 211.351 84.522Q211.301 84.3833 211.258 84.2424Q211.216 84.1015 211.18 83.9586Q211.144 83.8158 211.115 83.6713Q211.087 83.5269 211.065 83.3812Q211.043 83.2355 211.029 83.089Q211.014 82.9424 211.007 82.7954Q211 82.6483 211 82.501L211 11.499Q211 11.3517 211.007 11.2046Q211.014 11.0576 211.029 10.911Q211.043 10.7644 211.065 10.6188Q211.087 10.4731 211.115 10.3287Q211.144 10.1842 211.18 10.0414Q211.216 9.89851 211.258 9.75758Q211.301 9.61666 211.351 9.478Q211.4 9.33934 211.457 9.20328Q211.513 9.06722 211.576 8.9341Q211.639 8.80097 211.708 8.67109Q211.778 8.54121 211.853 8.4149Q211.929 8.28858 212.011 8.16613Q212.093 8.04368 212.181 7.9254Q212.268 7.80711 212.362 7.69327Q212.455 7.57943 212.554 7.47032Q212.653 7.3612 212.757 7.25707Q212.861 7.15293 212.97 7.05403Q213.079 6.95514 213.193 6.86171Q213.307 6.76828 213.425 6.68056Q213.544 6.59283 213.666 6.51101Q213.789 6.4292 213.915 6.35349Q214.041 6.27778 214.171 6.20835Q214.301 6.13893 214.434 6.07597Q214.567 6.013 214.703 5.95665Q214.839 5.90029 214.978 5.85068Q215.117 5.80106 215.258 5.75832Q215.398 5.71557 215.541 5.67978Q215.684 5.644 215.829 5.61527Q215.973 5.58654 216.119 5.56493Q216.264 5.54332 216.411 5.52889Q216.558 5.51445 216.705 5.50723Q216.852 5.5 216.999 5.5Z" id="Rectangle-7" fill="#EEA243" fill-rule="evenodd" stroke="none" artboard="fba9e2f7-ab87-4980-bbeb-6ae4fcc5693a" />
  </g>
</svg>